<svg width="13" height="12" viewBox="0 0 13 12" fill="none" xmlns="http://www.w3.org/2000/svg">
<path fill-rule="evenodd" clip-rule="evenodd" d="M0.43283 0H11.6864L12.1192 0.428926V5.14969C11.8512 4.95033 11.5607 4.7825 11.2536 4.64956V0.857852H0.86566V8.57852H5.19396C5.19396 9.50659 5.49771 10.4096 6.05962 11.1521H2.59698V10.2942H5.19396V9.43638H0.43283L0 9.00745V0.428926L0.43283 0Z" fill="#1E1E1E"/>
<path fill-rule="evenodd" clip-rule="evenodd" d="M7.59877 5.7254C7.97681 5.47226 8.4016 5.29567 8.84874 5.20575C9.29587 5.11583 9.75653 5.11437 10.2042 5.20145C10.6519 5.28852 11.0779 5.46242 11.4575 5.71315C11.8372 5.96388 12.1631 6.28649 12.4166 6.66244C12.67 7.0384 12.846 7.46028 12.9344 7.90385C13.0228 8.34742 13.0219 8.80392 12.9316 9.24713C12.8414 9.69033 12.6637 10.1115 12.4087 10.4864C12.1537 10.8614 11.8265 11.1826 11.4458 11.4318C10.6821 11.9317 9.74981 12.1116 8.85268 11.9323C7.95554 11.7529 7.16654 11.2289 6.65814 10.4748C6.14973 9.72065 5.96328 8.79773 6.13955 7.90776C6.31581 7.01779 6.84044 6.23316 7.59877 5.7254ZM9.44262 10.0061L11.509 7.27639L10.8164 6.76168L9.01845 9.13707L7.89222 8.24405L7.35119 8.91318L8.82627 10.0833L9.44349 10.0061H9.44262Z" fill="#1E1E1E"/>
</svg>
