<svg width="13" height="12" viewBox="0 0 13 12" fill="none" xmlns="http://www.w3.org/2000/svg">
<path d="M6.682 10.6264C7.1391 10.5956 7.59237 10.5237 8.03617 10.4116C8.5843 10.5738 9.16285 10.6106 9.72761 10.519C9.75015 10.5163 9.7728 10.5146 9.7955 10.514C9.997 10.514 10.2613 10.6278 10.647 10.8674V10.4735C10.6472 10.4049 10.666 10.3375 10.7016 10.2785C10.7371 10.2195 10.7881 10.1709 10.8492 10.1379C11.0173 10.0445 11.1725 9.93946 11.3151 9.82284C11.8769 9.36064 12.194 8.74343 12.194 8.09066C12.194 7.8752 12.1593 7.66045 12.0907 7.45566C12.2612 7.14705 12.3969 6.82494 12.4981 6.48931C12.8231 6.96217 12.9978 7.52037 13 8.09066C13 8.97808 12.5753 9.80578 11.8394 10.4109C11.7161 10.5119 11.5873 10.6048 11.453 10.6896V11.6126C11.453 11.9298 11.076 12.1125 10.8102 11.9234C10.5584 11.7409 10.2981 11.5701 10.0302 11.4114C9.95283 11.3675 9.87275 11.3283 9.79044 11.2941C9.56687 11.3267 9.34118 11.3431 9.11517 11.3431C8.19794 11.3431 7.35006 11.0751 6.682 10.6264ZM1.82794 8.78111C0.6695 7.82613 0 6.52415 0 5.12901C0 2.27901 2.76756 0 6.14683 0C9.52683 0 12.2951 2.2783 12.2951 5.12901C12.2951 7.97902 9.52683 10.2573 6.14683 10.2573C5.76694 10.2573 5.39259 10.2289 5.02378 10.172C4.86489 10.2082 4.22789 10.5759 3.31067 11.2265C2.97844 11.4626 2.50756 11.235 2.50756 10.8376V9.26394C2.26967 9.11915 2.04278 8.95755 1.82867 8.7804M5.04617 9.20136C5.07409 9.20136 5.10226 9.20349 5.13067 9.20776C5.46289 9.2618 5.80161 9.28906 6.14683 9.28953C9.00178 9.28953 11.2862 7.40873 11.2862 5.1283C11.2862 2.84858 9.00178 0.967778 6.14756 0.967778C3.29333 0.967778 1.0075 2.85 1.0075 5.12901C1.0075 6.23118 1.54194 7.26936 2.48517 8.04657C2.72302 8.24188 2.98206 8.41728 3.26228 8.57277C3.33829 8.6143 3.40175 8.67496 3.44616 8.74855C3.49057 8.82213 3.51434 8.906 3.51506 8.99159V9.89893C4.24089 9.42606 4.71828 9.20136 5.04617 9.20136Z" fill="#0F9067"/>
<path d="M3.65588 6.00007C3.87137 6.00007 4.07803 5.91579 4.23041 5.76577C4.38278 5.61575 4.46838 5.41227 4.46838 5.20011C4.46838 4.98795 4.38278 4.78447 4.23041 4.63445C4.07803 4.48443 3.87137 4.40015 3.65588 4.40015C3.4404 4.40015 3.23373 4.48443 3.08136 4.63445C2.92899 4.78447 2.84338 4.98795 2.84338 5.20011C2.84338 5.41227 2.92899 5.61575 3.08136 5.76577C3.23373 5.91579 3.4404 6.00007 3.65588 6.00007ZM6.29705 6.00007C6.51254 6.00007 6.7192 5.91579 6.87157 5.76577C7.02395 5.61575 7.10955 5.41227 7.10955 5.20011C7.10955 4.98795 7.02395 4.78447 6.87157 4.63445C6.7192 4.48443 6.51254 4.40015 6.29705 4.40015C6.08156 4.40015 5.8749 4.48443 5.72253 4.63445C5.57015 4.78447 5.48455 4.98795 5.48455 5.20011C5.48455 5.41227 5.57015 5.61575 5.72253 5.76577C5.8749 5.91579 6.08156 6.00007 6.29705 6.00007ZM8.93749 6.00007C9.15298 6.00007 9.35965 5.91579 9.51202 5.76577C9.66439 5.61575 9.74999 5.41227 9.74999 5.20011C9.74999 4.98795 9.66439 4.78447 9.51202 4.63445C9.35965 4.48443 9.15298 4.40015 8.93749 4.40015C8.72201 4.40015 8.51534 4.48443 8.36297 4.63445C8.2106 4.78447 8.12499 4.98795 8.12499 5.20011C8.12499 5.41227 8.2106 5.61575 8.36297 5.76577C8.51534 5.91579 8.72201 6.00007 8.93749 6.00007Z" fill="#0F9067"/>
</svg>
