<svg width="13" height="12" viewBox="0 0 13 12" fill="none" xmlns="http://www.w3.org/2000/svg">
<path d="M6.5 12C6.34833 12 6.19407 11.9717 6.0372 11.9151C5.88033 11.8586 5.7421 11.768 5.6225 11.6436L4.50125 10.5743C3.35292 9.47666 2.31552 8.38767 1.38905 7.30727C0.462584 6.22687 -0.000433029 5.03581 3.0388e-07 3.73409C3.0388e-07 2.67044 0.34125 1.78218 1.02375 1.06931C1.70625 0.356436 2.55667 0 3.575 0C4.14917 0 4.69083 0.127185 5.2 0.381556C5.70917 0.635926 6.1425 0.983989 6.5 1.42574C6.8575 0.984441 7.29083 0.636605 7.8 0.382235C8.30917 0.127864 8.85083 0.000452617 9.425 0C10.4433 0 11.2937 0.356436 11.9762 1.06931C12.6588 1.78218 13 2.67044 13 3.73409C13 5.03536 12.5396 6.22914 11.6188 7.31542C10.6979 8.4017 9.6525 9.49363 8.4825 10.5912L7.3775 11.6436C7.25833 11.768 7.12032 11.8586 6.96345 11.9151C6.80658 11.9717 6.6521 12 6.5 12ZM5.8825 2.78359C5.56833 2.31966 5.2325 1.96594 4.875 1.72243C4.5175 1.47892 4.08417 1.3574 3.575 1.35785C2.925 1.35785 2.38333 1.58416 1.95 2.03677C1.51667 2.48939 1.3 3.05516 1.3 3.73409C1.3 4.32249 1.50042 4.94778 1.90125 5.60996C2.30208 6.27214 2.78157 6.91417 3.3397 7.53607C3.89783 8.15796 4.472 8.74071 5.0622 9.2843C5.6524 9.82789 6.13167 10.2748 6.5 10.6252C6.86833 10.2744 7.34782 9.82744 7.93845 9.2843C8.52908 8.74116 9.10325 8.15842 9.66095 7.53607C10.2187 6.91372 10.6979 6.27168 11.0988 5.60996C11.4996 4.94823 11.7 4.32294 11.7 3.73409C11.7 3.05516 11.4833 2.48939 11.05 2.03677C10.6167 1.58416 10.075 1.35785 9.425 1.35785C8.91583 1.35785 8.4825 1.4796 8.125 1.72311C7.7675 1.96662 7.43167 2.32011 7.1175 2.78359C7.04167 2.89675 6.94958 2.98161 6.84125 3.03819C6.73292 3.09477 6.61917 3.12305 6.5 3.12305C6.38083 3.12305 6.26708 3.09477 6.15875 3.03819C6.05042 2.98161 5.95833 2.89675 5.8825 2.78359Z" fill="#0F9067"/>
</svg>
