<svg width="13" height="12" viewBox="0 0 13 12" fill="none" xmlns="http://www.w3.org/2000/svg">
<path d="M8.66255 12C7.67108 12 6.7964 11.7324 6.0385 11.1972C5.2806 10.662 4.76905 9.9756 4.50385 9.138C4.83318 9.1424 5.14453 9.1204 5.4379 9.072C5.73083 9.0236 6.019 8.9456 6.3024 8.838H9.66745C9.68652 8.6856 9.70103 8.5366 9.711 8.391C9.72053 8.2458 9.7253 8.097 9.7253 7.9446C9.7253 7.8202 9.72053 7.6896 9.711 7.5528C9.70103 7.416 9.68652 7.2828 9.66745 7.1532H8.73405C8.81552 7.0576 8.892 6.9618 8.9635 6.8658C9.035 6.7698 9.1052 6.6656 9.1741 6.5532H11.9899C11.7732 6.1376 11.4799 5.775 11.1098 5.4654C10.7402 5.1558 10.3155 4.9258 9.8358 4.7754C9.85703 4.6754 9.87372 4.5742 9.88585 4.4718C9.89798 4.3694 9.90275 4.2644 9.90015 4.1568C10.8067 4.4012 11.5498 4.8732 12.1296 5.5728C12.7099 6.2736 13 7.0814 13 7.9962C13 9.1082 12.5784 10.0536 11.7351 10.8324C10.8914 11.6108 9.86722 12 8.66255 12ZM7.8689 11.2776C7.68473 10.9776 7.5296 10.675 7.4035 10.3698C7.27697 10.0642 7.1786 9.7538 7.1084 9.4386H5.34755C5.58155 9.9114 5.91847 10.3114 6.3583 10.6386C6.79813 10.9658 7.30167 11.1788 7.8689 11.2776ZM8.66255 11.361C8.89222 11.0638 9.07833 10.7542 9.2209 10.4322C9.36303 10.1098 9.47483 9.7786 9.5563 9.4386H7.7688C7.8507 9.7786 7.9612 10.1096 8.1003 10.4316C8.23897 10.754 8.42638 11.0642 8.66255 11.361ZM9.4562 11.2776C10.0239 11.1784 10.5296 10.9654 10.9733 10.6386C11.417 10.3118 11.7559 9.9118 11.9899 9.4386H10.2134C10.1346 9.7538 10.0347 10.0642 9.9138 10.3698C9.7929 10.675 9.64037 10.9776 9.4562 11.2776ZM10.3174 8.8386H12.2349C12.2731 8.7078 12.3019 8.5718 12.3214 8.4306C12.3405 8.2894 12.35 8.1446 12.35 7.9962C12.35 7.8478 12.3405 7.703 12.3214 7.5618C12.3023 7.4206 12.2735 7.2846 12.2349 7.1538H10.3174C10.3365 7.283 10.3508 7.416 10.3603 7.5528C10.3699 7.6888 10.3747 7.8216 10.3747 7.9512C10.3747 8.1024 10.3699 8.2504 10.3603 8.3952C10.3508 8.5392 10.3365 8.687 10.3174 8.8386ZM4.3381 8.0076C3.13343 8.0076 2.10925 7.6184 1.26555 6.84C0.42185 6.0616 0 5.1164 0 4.0044C0 2.8924 0.421633 1.947 1.2649 1.1682C2.10817 0.3894 3.13213 0 4.3368 0C5.54147 0 6.56565 0.3892 7.40935 1.1676C8.25305 1.946 8.6749 2.8912 8.6749 4.0032C8.6749 5.1152 8.25327 6.0606 7.41 6.8394C6.56673 7.6182 5.54277 8.0076 4.3381 8.0076ZM4.34005 7.4076C5.35752 7.4076 6.22613 7.0748 6.9459 6.4092C7.66523 5.7436 8.0249 4.941 8.0249 4.0014C8.0249 3.0622 7.66437 2.2606 6.9433 1.5966C6.2218 0.9322 5.35232 0.6 4.33485 0.6C3.31738 0.6 2.44877 0.9328 1.729 1.5984C1.00967 2.2648 0.65 3.0674 0.65 4.0062C0.65 4.945 1.01053 5.7468 1.7316 6.4116C2.4531 7.0756 3.32258 7.4076 4.34005 7.4076ZM2.79955 3.5886C2.92565 3.5886 3.03637 3.5466 3.1317 3.4626C3.22703 3.3786 3.2747 3.2746 3.2747 3.1506C3.2747 3.0266 3.22703 2.9224 3.1317 2.838C3.03637 2.7536 2.9237 2.7116 2.7937 2.712C2.6637 2.7124 2.5532 2.7544 2.4622 2.838C2.37077 2.9216 2.32505 3.0256 2.32505 3.15C2.32505 3.2744 2.37055 3.3784 2.46155 3.462C2.55255 3.5456 2.66522 3.5882 2.79955 3.5886ZM4.34395 6.0438C4.76818 6.0438 5.15623 5.953 5.5081 5.7714C5.85997 5.5898 6.14488 5.3506 6.36285 5.0538L2.3127 5.0418C2.53023 5.347 2.8171 5.5902 3.1733 5.7714C3.5295 5.953 3.92015 6.0438 4.34395 6.0438ZM5.8877 3.5886C6.01337 3.5886 6.12387 3.5466 6.2192 3.4626C6.31453 3.3786 6.3622 3.2746 6.3622 3.1506C6.3622 3.0266 6.31453 2.9224 6.2192 2.838C6.12387 2.7536 6.0112 2.7116 5.8812 2.712C5.7512 2.7124 5.6407 2.7544 5.5497 2.838C5.4587 2.9216 5.41298 3.0256 5.41255 3.15C5.41212 3.2744 5.45762 3.3784 5.54905 3.462C5.64048 3.5456 5.75315 3.5876 5.88705 3.588" fill="#1E1E1E"/>
</svg>
