<svg width="14" height="14" viewBox="0 0 14 14" fill="none" xmlns="http://www.w3.org/2000/svg">
<path d="M8.091 4.75C8.091 4.94891 7.97606 5.13968 7.77148 5.28033C7.56689 5.42098 7.28942 5.5 7.00009 5.5C6.71076 5.5 6.43328 5.42098 6.2287 5.28033C6.02411 5.13968 5.90918 4.94891 5.90918 4.75C5.90918 4.55109 6.02411 4.36032 6.2287 4.21967C6.43328 4.07902 6.71076 4 7.00009 4C7.28942 4 7.56689 4.07902 7.77148 4.21967C7.97606 4.36032 8.091 4.55109 8.091 4.75Z" stroke="#1E1E1E" stroke-linejoin="round"/>
<path d="M13 5.125C13 7.4035 10.8182 10 7 13C3.18182 10 1 7.4035 1 5.125C1 4.03098 1.63214 2.98177 2.75736 2.20818C3.88258 1.4346 5.4087 1 7 1C8.5913 1 10.1174 1.4346 11.2426 2.20818C12.3679 2.98177 13 4.03098 13 5.125Z" stroke="#1E1E1E" stroke-linejoin="round"/>
</svg>
