<svg width="15" height="15" viewBox="0 0 15 15" fill="none" xmlns="http://www.w3.org/2000/svg">
<path d="M5.625 7.37344C5.6576 6.92424 5.85079 6.50178 6.16926 6.18332C6.48772 5.86485 6.91018 5.67166 7.35938 5.63906L8.20781 4.78594C7.73239 4.66076 7.23246 4.66238 6.75785 4.79065C6.28326 4.91893 5.85057 5.16936 5.50293 5.517C5.1553 5.86463 4.90486 6.29732 4.77659 6.77192C4.64832 7.24652 4.64669 7.74645 4.77188 8.22188L5.625 7.37344ZM14.5031 7.34062C13.9656 5.94056 13.0303 4.72829 11.8125 3.85313L14.0625 1.59844L13.4016 0.9375L0.9375 13.4016L1.59844 14.0625L3.98906 11.6719C5.05503 12.297 6.26443 12.6361 7.5 12.6562C9.02788 12.5988 10.5054 12.0949 11.7501 11.2068C12.9947 10.3188 13.9518 9.08548 14.5031 7.65938C14.5404 7.55639 14.5404 7.44361 14.5031 7.34062ZM9.375 7.5C9.37303 7.82817 9.28495 8.15008 9.11958 8.43355C8.95421 8.71701 8.71733 8.95211 8.43263 9.11534C8.14792 9.27857 7.82536 9.36422 7.49719 9.36372C7.16901 9.36322 6.84671 9.2766 6.5625 9.1125L9.1125 6.5625C9.28102 6.84644 9.37157 7.16984 9.375 7.5ZM7.5 11.7188C6.51659 11.7016 5.55183 11.4475 4.6875 10.9781L5.87813 9.7875C6.41969 10.1633 7.07603 10.3369 7.73256 10.278C8.38909 10.2192 9.00409 9.9316 9.47019 9.4655C9.93629 8.9994 10.2239 8.3844 10.2827 7.72787C10.3416 7.07135 10.168 6.415 9.79219 5.87344L11.1375 4.52812C12.2131 5.2664 13.0542 6.29785 13.5609 7.5C12.6094 9.87656 9.98438 11.7188 7.5 11.7188Z" fill="black"/>
</svg>
